<svg width="48" height="48" viewBox="0 0 48 48" fill="none" xmlns="http://www.w3.org/2000/svg">
<path d="M34.7099 40.5155C32.7161 42.4681 30.5392 42.1598 28.4437 41.2349C26.2261 40.2894 24.1916 40.2483 21.852 41.2349C18.9223 42.5092 17.3761 42.1392 15.6265 40.5155C5.69819 30.1774 7.16302 14.4338 18.4341 13.8583C21.1806 14.0022 23.093 15.3792 24.7003 15.5026C27.1009 15.0093 29.3999 13.5911 31.9634 13.7761C35.0354 14.0227 37.3547 15.2559 38.8806 17.4756C32.533 21.3191 34.0385 29.7663 39.8571 32.1299C38.6975 35.2129 37.192 38.2752 34.6896 40.5361L34.7099 40.5155ZM24.4968 13.735C24.1916 9.1517 27.874 5.36995 32.1058 5C32.6958 10.3027 27.3451 14.2488 24.4968 13.735Z" fill="black"/>
</svg>
