<svg width="40" height="40" viewBox="0 0 40 40" fill="none" xmlns="http://www.w3.org/2000/svg">
<rect width="40" height="40" rx="10" fill="white"/>
<path d="M23.7975 18.8097L27.4967 18.4825C28.3269 18.4825 29 19.1622 29 20.0004C29 20.8387 28.3269 21.5183 27.4967 21.5183L23.7975 21.1912C23.1463 21.1912 22.6183 20.6581 22.6183 20.0004C22.6183 19.3417 23.1463 18.8097 23.7975 18.8097Z" fill="#84CBFF"/>
<path d="M11.3753 18.8698C11.4331 18.8115 11.6491 18.5647 11.852 18.3598C13.0356 17.0766 16.1261 14.9782 17.7428 14.336C17.9883 14.2335 18.609 14.0154 18.9417 14C19.2592 14 19.5625 14.0738 19.8515 14.2192C20.2126 14.423 20.5006 14.7446 20.6599 15.1236C20.7613 15.3857 20.9206 16.1733 20.9206 16.1876C21.0788 17.0479 21.165 18.4469 21.165 19.9934C21.165 21.465 21.0788 22.8067 20.949 23.6813C20.9348 23.6967 20.7755 24.6738 20.6021 25.0086C20.2846 25.6211 19.6639 26 18.9995 26H18.9417C18.5086 25.9857 17.5988 25.6057 17.5988 25.5924C16.0683 24.9502 13.0509 22.9532 11.8378 21.6258C11.8378 21.6258 11.4953 21.2844 11.3469 21.0718C11.1156 20.7656 11 20.3866 11 20.0077C11 19.5847 11.1298 19.1915 11.3753 18.8698Z" fill="#071334"/>
</svg>
