<svg width="12" height="13" viewBox="0 0 12 13" fill="none" xmlns="http://www.w3.org/2000/svg">
<path opacity="0.4" fill-rule="evenodd" clip-rule="evenodd" d="M0 9.6654V4.71695H12V9.70505C12 11.7454 10.6828 12.9999 8.57519 12.9999H3.41822C1.33041 12.9999 0 11.7194 0 9.6654ZM3.30628 8.06625C3.00331 8.0799 2.75304 7.84525 2.73987 7.5469C2.73987 7.2479 2.97697 7.0009 3.27993 6.98725C3.57631 6.98725 3.82 7.2154 3.82659 7.50725C3.83976 7.8069 3.60266 8.0539 3.30628 8.06625ZM6.01319 8.06625C5.71022 8.0799 5.45995 7.84525 5.44678 7.5469C5.44678 7.2479 5.68388 7.0009 5.98684 6.98725C6.28322 6.98725 6.52691 7.2154 6.53349 7.50725C6.54667 7.8069 6.30957 8.0539 6.01319 8.06625ZM8.70035 10.4584C8.39738 10.4519 8.1537 10.2049 8.1537 9.9059C8.14711 9.6069 8.3908 9.36055 8.69376 9.35405H8.70035C9.0099 9.35405 9.26017 9.60105 9.26017 9.9059C9.26017 10.2114 9.0099 10.4584 8.70035 10.4584ZM5.44678 9.90591C5.45995 10.2049 5.71022 10.4396 6.01319 10.4259C6.30957 10.4136 6.54667 10.1666 6.53349 9.86756C6.52691 9.57506 6.28322 9.34691 5.98684 9.34691C5.68388 9.36056 5.44678 9.60691 5.44678 9.90591ZM2.73328 9.90591C2.74645 10.2049 2.99672 10.4396 3.29969 10.4259C3.59606 10.4136 3.83317 10.1666 3.81999 9.86756C3.81341 9.57506 3.56972 9.34691 3.27334 9.34691C2.97038 9.36056 2.73328 9.60691 2.73328 9.90591ZM8.16028 7.54039C8.16028 7.24139 8.39738 7.00089 8.70034 6.99439C8.99672 6.99439 9.23382 7.22774 9.247 7.51439C9.25358 7.81339 9.01648 8.06039 8.7201 8.06624C8.41714 8.07274 8.16686 7.84524 8.16028 7.54689V7.54039Z" fill="#84CBFF"/>
<path d="M0.00219727 4.71689C0.0107593 4.33534 0.0436901 3.57809 0.1056 3.33434C0.421736 1.96349 1.49528 1.09249 3.02986 0.968338H8.97058C10.492 1.09899 11.5787 1.97584 11.8948 3.33434C11.9561 3.57159 11.989 4.33469 11.9976 4.71689H0.00219727Z" fill="#071334"/>
<path d="M3.53655 2.9835C3.82635 2.9835 4.04369 2.76965 4.04369 2.483V0.50115C4.04369 0.2145 3.82635 0 3.53655 0C3.24676 0 3.02942 0.2145 3.02942 0.50115V2.483C3.02942 2.76965 3.24676 2.9835 3.53655 2.9835Z" fill="#071334"/>
<path d="M8.46331 2.9835C8.74652 2.9835 8.97045 2.76965 8.97045 2.483V0.50115C8.97045 0.2145 8.74652 0 8.46331 0C8.17352 0 7.95618 0.2145 7.95618 0.50115V2.483C7.95618 2.76965 8.17352 2.9835 8.46331 2.9835Z" fill="#071334"/>
</svg>
