<svg width="36" height="36" viewBox="0 0 36 36" fill="none" xmlns="http://www.w3.org/2000/svg">
<g clip-path="url(#clip0_254_1818)">
<path d="M19.2154 10.9062V5.45772H22.6191V3.11463H19.2154V0H16.8664V3.11463H13.4626V5.45772H16.8664V10.9062" fill="#F1C400"/>
<path d="M34.8108 24.7594V33.4868H1.18909V24.7594L2.86955 23.0378L7.65923 20.9193L10.8088 19.5265L24.367 18.9929L34.1049 22.8881L34.306 23.4216L34.8108 24.7594Z" fill="#B8BBCB"/>
<path d="M26.5515 15.361V33.4881H9.44897V15.361L11.4655 13.3291L12.9816 11.802L17.6113 10.749L17.9254 10.6777L20.3544 11.573L23.6178 12.7758L24.7786 13.4303L26.5391 14.4232L26.5515 15.361Z" fill="#E6EFF6"/>
<path d="M18.1873 25.135H17.9626C16.2871 25.135 14.929 26.4932 14.929 28.1686V33.4869H21.221V28.1686C21.221 26.4933 19.8628 25.135 18.1873 25.135Z" fill="#9E7C59"/>
<path d="M26.5515 15.3612V16.8414L18.0018 13.2522L9.44897 16.8428V15.3612L11.4655 13.3292L17.6113 10.7491L18.0018 10.5854L20.3544 11.5732L24.7786 13.4305L26.5391 14.4234L26.5515 15.3612Z" fill="#CED6DB"/>
<path d="M8.18896 15.8915L18.0015 11.7717L27.8142 15.8915V13.225L18.0015 9.10522L8.18896 13.225V15.8915Z" fill="#B00715"/>
<path d="M9.44903 20.1685V22.8352L1.18909 26.3003V24.7593L2.86955 23.0377L7.65923 20.9192L9.44903 20.1685Z" fill="#A3A5B2"/>
<path d="M34.8109 24.7593V26.3003L26.5516 22.8352V20.1685L34.306 23.4215L34.8109 24.7593Z" fill="#A3A5B2"/>
<path d="M9.4489 21.2938L0.0228271 25.2488V22.5821L9.4489 18.6272" fill="#B00715"/>
<path d="M26.5513 18.6272L35.9774 22.5821V25.2488L26.5513 21.2938" fill="#B00715"/>
<path d="M5.50025 25.7219H5.36849C4.3858 25.7219 3.58923 26.5185 3.58923 27.5012V30.6203H7.27951V27.5012C7.27951 26.5186 6.48294 25.7219 5.50025 25.7219Z" fill="#423E3E"/>
<path d="M30.6316 25.7219H30.4998C29.5171 25.7219 28.7206 26.5185 28.7206 27.5012V30.6203H32.4109V27.5012C32.4109 26.5186 31.6142 25.7219 30.6316 25.7219Z" fill="#423E3E"/>
<path d="M7.2795 31.1707H3.58922C3.28519 31.1707 3.03882 30.9242 3.03882 30.6203V27.5012C3.03882 26.2167 4.08387 25.1716 5.36841 25.1716H5.50017C6.78471 25.1716 7.82976 26.2167 7.82976 27.5012V30.6203C7.82983 30.9243 7.58346 31.1707 7.2795 31.1707ZM4.13956 30.0699H6.72909V27.5012C6.72909 26.8236 6.17777 26.2724 5.50024 26.2724H5.36848C4.69095 26.2724 4.13963 26.8236 4.13963 27.5012L4.13956 30.0699Z" fill="#7C5C40"/>
<path d="M32.4108 31.1707H28.7206C28.4165 31.1707 28.1702 30.9242 28.1702 30.6203V27.5012C28.1702 26.2167 29.2152 25.1716 30.4998 25.1716H30.6315C31.9161 25.1716 32.9611 26.2167 32.9611 27.5012V30.6203C32.9613 30.9243 32.7148 31.1707 32.4108 31.1707ZM29.271 30.0699H31.8605V27.5012C31.8605 26.8236 31.3092 26.2724 30.6317 26.2724H30.4999C29.8224 26.2724 29.271 26.8236 29.271 27.5012L29.271 30.0699Z" fill="#7C5C40"/>
<path d="M21.2642 29.4097H14.9724V30.5104H21.2642V29.4097Z" fill="#7C5C40"/>
<path d="M18.6693 25.135H17.5686V33.8397H18.6693V25.135Z" fill="#7C5C40"/>
<path d="M18.0001 21.2642C19.2363 21.2642 20.2383 20.2621 20.2383 19.026C20.2383 17.7899 19.2363 16.7878 18.0001 16.7878C16.764 16.7878 15.762 17.7899 15.762 19.026C15.762 20.2621 16.764 21.2642 18.0001 21.2642Z" fill="#423E3E"/>
<path d="M21.1136 15.9124C20.3167 15.1161 19.216 14.623 18 14.623C16.784 14.623 15.6833 15.1161 14.8871 15.9124C14.0902 16.7093 13.597 17.81 13.597 19.026C13.597 20.242 14.0901 21.3427 14.8871 22.1396C15.6834 22.9359 16.7841 23.429 18 23.429C19.2159 23.429 20.3167 22.9359 21.1136 22.1396C21.9106 21.3427 22.403 20.242 22.403 19.026C22.403 17.81 21.9106 16.7093 21.1136 15.9124ZM16.4179 20.6089C16.0128 20.2038 15.7619 19.6446 15.7619 19.026C15.7619 18.4074 16.0128 17.8482 16.4179 17.4431C16.823 17.0388 17.3829 16.7878 18 16.7878C18.6186 16.7878 19.1778 17.0388 19.5829 17.4438C19.9879 17.8489 20.2382 18.4081 20.2382 19.026C20.2382 19.6439 19.9879 20.203 19.5829 20.6081C19.1778 21.0132 18.6186 21.2641 18 21.2641C17.3828 21.2642 16.823 21.0132 16.4179 20.6089Z" fill="#D8B75F"/>
<path d="M22.4031 19.026H20.2383C20.2383 18.4081 19.9881 17.849 19.583 17.4438V17.4431L21.1138 15.9124C21.9107 16.7093 22.4031 17.81 22.4031 19.026Z" fill="#D81335"/>
<path d="M15.7619 19.0259C15.7619 19.6445 16.0128 20.2037 16.4179 20.6088L14.8871 22.1395C14.0902 21.3426 13.597 20.2419 13.597 19.0259H15.7619Z" fill="#D81335"/>
<path d="M19.5829 20.6089L21.1136 22.1396C20.3167 22.9358 19.216 23.4289 18 23.4289V21.2642C18.6186 21.2642 19.1778 21.0132 19.5829 20.6082V20.6089Z" fill="#61A6BD"/>
<path d="M18 14.623V16.7878C17.3829 16.7878 16.823 17.0388 16.4179 17.4431L14.8871 15.9124C15.6833 15.1161 16.784 14.623 18 14.623Z" fill="#61A6BD"/>
<path d="M16.4179 17.4431C16.0128 17.8482 15.7619 18.4074 15.7619 19.026H13.597C13.597 17.81 14.0901 16.7093 14.8871 15.9124L16.4179 17.4431Z" fill="#FF85AE"/>
<path d="M20.2382 19.0259H22.403C22.403 20.2419 21.9106 21.3426 21.1137 22.1395L19.5829 20.6088V20.608C19.988 20.2029 20.2382 19.6438 20.2382 19.0259Z" fill="#FF85AE"/>
<path d="M18.0001 14.0725C15.2688 14.0725 13.0468 16.2945 13.0468 19.0259C13.0468 21.7572 15.2688 23.9792 18.0001 23.9792C20.7315 23.9792 22.9535 21.7572 22.9535 19.0259C22.9535 16.2945 20.7313 14.0725 18.0001 14.0725ZM21.0844 16.7199C21.4623 17.2241 21.7191 17.8238 21.8127 18.4755H20.7337C20.6612 18.1147 20.5188 17.7791 20.3213 17.4829L21.0844 16.7199ZM14.9157 16.7199L15.6787 17.4829C15.4812 17.779 15.3388 18.1147 15.2663 18.4755H14.1874C14.281 17.8238 14.5378 17.2241 14.9157 16.7199ZM14.9157 21.3318C14.5378 20.8276 14.2811 20.2279 14.1874 19.5762H15.2664C15.3389 19.9371 15.4813 20.2727 15.6788 20.5688L14.9157 21.3318ZM17.4497 15.2132V16.2921C17.0889 16.3646 16.7533 16.5071 16.457 16.7045L15.694 15.9415C16.1982 15.5636 16.798 15.3068 17.4497 15.2132ZM17.4497 22.8385C16.798 22.7448 16.1983 22.4882 15.6941 22.1102L16.4571 21.3472C16.7532 21.5447 17.0889 21.6871 17.4497 21.7595V22.8385ZM16.3123 19.0259C16.3123 18.0952 17.0694 17.3381 18 17.3381C18.9308 17.3381 19.6878 18.0953 19.6878 19.0259C19.6878 19.9565 18.9307 20.7137 18 20.7137C17.0694 20.7137 16.3123 19.9565 16.3123 19.0259ZM18.5505 22.8385V21.7595C18.9113 21.6871 19.2469 21.5446 19.5431 21.3472L20.3061 22.1102C19.8018 22.4881 19.2021 22.7449 18.5505 22.8385ZM19.5431 16.7046C19.247 16.5071 18.9112 16.3647 18.5505 16.2922V15.2133C19.2022 15.307 19.8019 15.5636 20.3061 15.9416L19.5431 16.7046ZM21.0844 21.3318L20.3213 20.5688C20.5188 20.2727 20.6612 19.937 20.7337 19.5762H21.8127C21.7191 20.2279 21.4624 20.8276 21.0844 21.3318Z" fill="#7C5C40"/>
<path d="M21.7713 34.2206H20.6705V28.1685C20.6705 26.7992 19.5565 25.6852 18.1872 25.6852H17.9624C16.5932 25.6852 15.4792 26.7992 15.4792 28.1685V34.2206H14.3784V28.1685C14.3784 26.1922 15.9862 24.5845 17.9624 24.5845H18.1872C20.1635 24.5845 21.7713 26.1923 21.7713 28.1685V34.2206Z" fill="#7C5C40"/>
<path d="M35.2136 33.4514H0.78652C0.363802 33.4514 0.0212402 33.794 0.0212402 34.2167V36H35.9788V34.2167C35.9788 33.794 35.6362 33.4514 35.2136 33.4514Z" fill="#423E3E"/>
</g>
<defs>
<clipPath id="clip0_254_1818">
<rect width="36" height="36" fill="white"/>
</clipPath>
</defs>
</svg>
