<svg width="24" height="25" viewBox="0 0 24 25" fill="none" xmlns="http://www.w3.org/2000/svg">
<path d="M12 3.5C10.4386 3.49947 8.90385 3.90519 7.54668 4.67727C6.1895 5.44936 5.05654 6.56125 4.25912 7.9037C3.4617 9.24615 3.02726 10.773 2.99848 12.3341C2.9697 13.8953 3.34758 15.4371 4.09498 16.808L3.02998 20.543C2.9925 20.6742 2.99151 20.813 3.02709 20.9447C3.06268 21.0764 3.1335 21.1959 3.23193 21.2903C3.33037 21.3847 3.45269 21.4505 3.58573 21.4806C3.71877 21.5107 3.8575 21.5039 3.98698 21.461L7.49398 20.2925C8.68927 20.9832 10.0274 21.3897 11.405 21.4805C12.7825 21.5713 14.1624 21.344 15.438 20.8162C16.7137 20.2884 17.8507 19.4742 18.7614 18.4366C19.672 17.399 20.3317 16.1658 20.6895 14.8325C21.0472 13.4992 21.0935 12.1014 20.8247 10.7473C20.5558 9.39323 19.9791 8.11914 19.139 7.02362C18.299 5.9281 17.2182 5.04051 15.9803 4.4295C14.7424 3.8185 13.3805 3.50046 12 3.5ZM8.99998 11C8.99998 10.8011 9.079 10.6103 9.21965 10.4697C9.3603 10.329 9.55107 10.25 9.74998 10.25H14.25C14.4489 10.25 14.6397 10.329 14.7803 10.4697C14.921 10.6103 15 10.8011 15 11C15 11.1989 14.921 11.3897 14.7803 11.5303C14.6397 11.671 14.4489 11.75 14.25 11.75H9.74998C9.55107 11.75 9.3603 11.671 9.21965 11.5303C9.079 11.3897 8.99998 11.1989 8.99998 11ZM9.74998 13.25H12.75C12.9489 13.25 13.1397 13.329 13.2803 13.4697C13.421 13.6103 13.5 13.8011 13.5 14C13.5 14.1989 13.421 14.3897 13.2803 14.5303C13.1397 14.671 12.9489 14.75 12.75 14.75H9.74998C9.55107 14.75 9.3603 14.671 9.21965 14.5303C9.079 14.3897 8.99998 14.1989 8.99998 14C8.99998 13.8011 9.079 13.6103 9.21965 13.4697C9.3603 13.329 9.55107 13.25 9.74998 13.25Z" fill="#071334"/>
</svg>
