<svg width="40" height="40" viewBox="0 0 40 40" fill="none" xmlns="http://www.w3.org/2000/svg">
<rect width="40" height="40" rx="10" fill="white"/>
<path d="M17.8571 13.1429H22.1428C22.1428 12.5746 21.9171 12.0296 21.5152 11.6277C21.1133 11.2258 20.5683 11.0001 20 11.0001C19.4317 11.0001 18.8866 11.2258 18.4848 11.6277C18.0829 12.0296 17.8571 12.5746 17.8571 13.1429ZM16.5714 13.1429C16.5714 12.2336 16.9326 11.3615 17.5756 10.7186C18.2186 10.0756 19.0907 9.71436 20 9.71436C20.9093 9.71436 21.7814 10.0756 22.4243 10.7186C23.0673 11.3615 23.4286 12.2336 23.4286 13.1429H28.7857C28.9562 13.1429 29.1197 13.2107 29.2403 13.3312C29.3608 13.4518 29.4286 13.6153 29.4286 13.7858C29.4286 13.9563 29.3608 14.1198 29.2403 14.2404C29.1197 14.3609 28.9562 14.4286 28.7857 14.4286H27.6628L26.6197 26.9455C26.5438 27.8561 26.1285 28.7049 25.4561 29.3236C24.7837 29.9423 23.9034 30.2857 22.9897 30.2858H17.0103C16.0965 30.2857 15.2162 29.9423 14.5438 29.3236C13.8715 28.7049 13.4562 27.8561 13.3803 26.9455L12.3371 14.4286H11.2143C11.0438 14.4286 10.8803 14.3609 10.7597 14.2404C10.6391 14.1198 10.5714 13.9563 10.5714 13.7858C10.5714 13.6153 10.6391 13.4518 10.7597 13.3312C10.8803 13.2107 11.0438 13.1429 11.2143 13.1429H16.5714ZM18.7143 18.0715C18.7143 17.901 18.6465 17.7375 18.526 17.6169C18.4054 17.4964 18.2419 17.4286 18.0714 17.4286C17.9009 17.4286 17.7374 17.4964 17.6168 17.6169C17.4963 17.7375 17.4286 17.901 17.4286 18.0715V25.3572C17.4286 25.5277 17.4963 25.6912 17.6168 25.8118C17.7374 25.9323 17.9009 26.0001 18.0714 26.0001C18.2419 26.0001 18.4054 25.9323 18.526 25.8118C18.6465 25.6912 18.7143 25.5277 18.7143 25.3572V18.0715ZM21.9286 17.4286C21.7581 17.4286 21.5945 17.4964 21.474 17.6169C21.3534 17.7375 21.2857 17.901 21.2857 18.0715V25.3572C21.2857 25.5277 21.3534 25.6912 21.474 25.8118C21.5945 25.9323 21.7581 26.0001 21.9286 26.0001C22.0991 26.0001 22.2626 25.9323 22.3831 25.8118C22.5037 25.6912 22.5714 25.5277 22.5714 25.3572V18.0715C22.5714 17.901 22.5037 17.7375 22.3831 17.6169C22.2626 17.4964 22.0991 17.4286 21.9286 17.4286Z" fill="#071334"/>
</svg>
