<svg width="36" height="36" viewBox="0 0 36 36" fill="none" xmlns="http://www.w3.org/2000/svg">
<g clip-path="url(#clip0_254_1776)">
<path d="M15.9922 27.4435L15.8 31.6827H8.03513C8.12448 29.5995 7.36395 27.5693 5.92776 26.0575C3.68408 23.7256 1.92125 21.378 0.976206 18.9901C0.80884 18.5616 0.727205 18.1042 0.736064 17.6442V10.4698C0.743303 9.81794 1.20235 9.25859 1.84028 9.12437C2.5388 9.0273 3.18779 9.5034 3.30495 10.1988L4.32239 16.8498C5.02472 18.7034 6.31098 20.2783 7.98712 21.3366C8.41997 21.6331 8.90073 21.9617 9.45341 21.6092C9.72928 21.2501 9.69508 20.7419 9.37359 20.423L7.10599 18.6282C6.38118 18.1601 6.05407 17.2684 6.30412 16.4426C6.41252 15.9941 6.86395 15.7184 7.31242 15.8268C7.41701 15.8522 7.51579 15.8974 7.60324 15.9602L12.1703 19.2218C12.9761 19.6696 13.6673 20.2977 14.1898 21.0571C15.4943 22.9215 16.1295 25.1723 15.9922 27.4435Z" fill="#FED19A"/>
<path d="M7.37492 31.4482H16.0465C16.3536 31.4482 16.6024 31.6971 16.6024 32.0041V35.3828C16.6024 35.6898 16.3535 35.9387 16.0465 35.9387H7.37492C7.0679 35.9387 6.81909 35.6897 6.81909 35.3828V32.0041C6.81909 31.6971 7.068 31.4482 7.37492 31.4482Z" fill="#575B6D"/>
<path d="M14.6968 34.3767C15.0741 34.3767 15.3799 34.0708 15.3799 33.6936C15.3799 33.3163 15.0741 33.0105 14.6968 33.0105C14.3196 33.0105 14.0137 33.3163 14.0137 33.6936C14.0137 34.0708 14.3196 34.3767 14.6968 34.3767Z" fill="#828A9E"/>
<path d="M20.0078 27.4435L20.2 31.6827H27.9649C27.8756 29.5995 28.6361 27.5693 30.0723 26.0575C32.316 23.7256 34.0788 21.378 35.0238 18.9901C35.1912 18.5615 35.2728 18.1042 35.264 17.6442V10.4698C35.2567 9.81794 34.7977 9.25859 34.1598 9.12437C33.4612 9.0273 32.8123 9.5034 32.6951 10.1988L31.675 16.8498C30.9733 18.703 29.688 20.2778 28.0129 21.3366C27.5801 21.6331 27.0993 21.9617 26.5466 21.6092C26.2708 21.2501 26.305 20.7419 26.6265 20.423L28.8941 18.6282C29.6189 18.1601 29.946 17.2684 29.6959 16.4426C29.5875 15.9941 29.1361 15.7184 28.6876 15.8268C28.583 15.8522 28.4843 15.8974 28.3968 15.9602L23.8302 19.2218C23.0244 19.6695 22.3332 20.2977 21.8107 21.057C20.5061 22.9214 19.8707 25.1722 20.0078 27.4435Z" fill="#FED19A"/>
<path d="M19.6948 31.4482H28.4846C28.7957 31.4482 29.0479 31.7005 29.0479 32.0116V35.4367C29.0479 35.7478 28.7957 36 28.4846 36H19.6948C19.3836 36 19.1314 35.7478 19.1314 35.4367V32.0116C19.1314 31.7004 19.3836 31.4482 19.6948 31.4482Z" fill="#575B6D"/>
<path d="M21.063 34.4858C21.4453 34.4858 21.7552 34.176 21.7552 33.7937C21.7552 33.4114 21.4453 33.1016 21.063 33.1016C20.6808 33.1016 20.3709 33.4114 20.3709 33.7937C20.3709 34.176 20.6808 34.4858 21.063 34.4858Z" fill="#828A9E"/>
<path d="M22.0465 6.77967e-05C20.5531 -0.000408488 19.112 0.550844 18.0001 1.5478C15.4962 -0.690736 11.6518 -0.475741 9.41313 2.02799C8.41465 3.14479 7.86349 4.59079 7.8653 6.08889C7.8653 12.3961 18 19.1158 18 19.1158C18 19.1158 28.1502 12.4183 28.1347 6.08889C28.1318 2.72756 25.4078 0.00330653 22.0465 6.77967e-05Z" fill="#EF5261"/>
</g>
<defs>
<clipPath id="clip0_254_1776">
<rect width="36" height="36" fill="white"/>
</clipPath>
</defs>
</svg>
