<svg width="38" height="44" viewBox="0 0 38 44" fill="none" xmlns="http://www.w3.org/2000/svg">
<path d="M35.8889 6.6C36.4488 6.6 36.9858 6.83179 37.3817 7.24437C37.7776 7.65695 38 8.21652 38 8.8C38 9.38348 37.7776 9.94305 37.3817 10.3556C36.9858 10.7682 36.4488 11 35.8889 11H33.7778L33.7714 11.1562L31.8018 39.9124C31.726 41.0225 31.2493 42.0614 30.4678 42.8199C29.6863 43.5783 28.658 44 27.5901 44H10.4078C9.33985 44 8.31159 43.5783 7.53009 42.8199C6.7486 42.0614 6.27193 41.0225 6.19611 39.9124L4.22644 11.1584L4.22222 11H2.11111C1.55121 11 1.01424 10.7682 0.61833 10.3556C0.22242 9.94305 0 9.38348 0 8.8C0 8.21652 0.22242 7.65695 0.61833 7.24437C1.01424 6.83179 1.55121 6.6 2.11111 6.6H35.8889ZM23.2222 0C23.7821 0 24.3191 0.231785 24.715 0.644365C25.1109 1.05695 25.3333 1.61652 25.3333 2.2C25.3333 2.78348 25.1109 3.34306 24.715 3.75564C24.3191 4.16822 23.7821 4.4 23.2222 4.4H14.7778C14.2179 4.4 13.6809 4.16822 13.285 3.75564C12.8891 3.34306 12.6667 2.78348 12.6667 2.2C12.6667 1.61652 12.8891 1.05695 13.285 0.644365C13.6809 0.231785 14.2179 0 14.7778 0H23.2222Z" fill="#E21B1B"/>
</svg>
