<svg width="36" height="36" viewBox="0 0 36 36" fill="none" xmlns="http://www.w3.org/2000/svg">
<path d="M20.5369 15.8796C20.3745 16.056 20.1415 16.1619 19.8451 16.1831C18.398 16.3243 15.4824 14.7712 12.6515 12.2369C9.80656 9.69548 7.94294 6.97761 7.92175 5.52337C7.91468 5.22689 7.98534 4.97978 8.1477 4.8033C9.08648 3.75851 12.6162 5.38924 16.0401 8.44599C19.4569 11.5027 21.4758 14.8348 20.5369 15.8796Z" fill="#FFCA28"/>
<path d="M19.9228 15.3289C18.3387 17.0641 10.2343 10.8863 8.75468 6.87878C8.57454 6.40827 8.41392 5.71837 8.76175 5.35396C9.60885 4.40797 12.7856 5.87635 15.8707 8.63657C18.9485 11.3898 20.7699 14.39 19.9228 15.3289Z" fill="#FF9F1C"/>
<path d="M18.5659 15.5491C15.4318 14.8997 9.89462 9.96457 8.75592 6.87695C11.8344 7.50672 17.4035 12.4151 18.5659 15.5491Z" fill="#19345D"/>
<path d="M25.5474 8.02126C23.6639 9.46769 21.1953 9.98197 19.0996 9.36481C17.5897 8.93347 16.5326 7.9886 15.7246 7.77054C15.3452 7.66126 14.8118 7.65483 14.4775 7.95695C14.1152 8.28291 14.0207 8.88185 13.8346 9.37124C13.5314 10.2297 12.8624 10.9554 11.9125 11.197C11.726 11.0105 11.546 10.8241 11.3788 10.6441C12.3369 10.544 12.8691 10.0102 13.2366 9.14626C13.4506 8.53551 13.561 7.90485 14.0466 7.47481C14.5032 7.07624 15.1909 6.95409 15.8981 7.15338C16.9742 7.45074 17.655 8.27316 19.2796 8.74769C21.1824 9.30697 23.4324 8.83127 25.1552 7.51342L25.5474 8.02126Z" fill="#F72F43"/>
<path d="M32.5662 22.8613C32.4815 23.0448 32.319 23.179 32.0862 23.2778C30.9495 23.7578 28.1964 23.2142 25.2668 21.8447C22.33 20.4822 20.1346 18.7174 19.7745 17.5455C19.6968 17.3126 19.6968 17.1007 19.7816 16.9172C20.2828 15.8442 23.5512 16.296 27.081 17.9338C30.6107 19.5786 33.0673 21.7812 32.5662 22.8613Z" fill="#FF345D"/>
<path d="M32.1565 22.671C32.0719 22.8404 31.9237 22.9674 31.7048 23.0592C29.192 24.0648 21.0403 20.2617 20.1837 17.6941C20.1132 17.4823 20.1132 17.2846 20.1908 17.1081C20.6639 16.1057 23.7205 16.5292 27.0243 18.0612C30.3212 19.6001 32.6225 21.6615 32.1565 22.671Z" fill="#E2212E"/>
<path d="M31.1967 23.1862C28.3434 23.5892 21.6492 20.4189 20.3394 18.0327C23.2369 17.6562 29.8623 20.8124 31.1967 23.1862Z" fill="#19345D"/>
<path d="M19.8452 16.1855C19.7805 16.2139 18.0924 16.9524 18.1996 16.9055C17.9903 16.9975 12.0457 19.6097 12.3624 19.4705C12.2978 19.499 7.93238 21.4249 8.20958 21.3026C8.20958 21.3026 8.20958 21.3026 8.20315 21.3026C8.13678 21.3318 3.06312 23.5632 3.13092 23.5334C2.75817 23.6941 2.36596 23.3405 2.48806 22.9548C2.5094 22.8863 7.37619 7.25721 7.35453 7.32693L7.92017 5.52051C7.94591 6.97981 9.80386 9.69264 12.6517 12.2384C15.4803 14.7712 18.3988 16.3269 19.8452 16.1855Z" fill="#FF9F1C"/>
<path d="M18.2001 16.9032C18.1337 16.9324 11.9813 19.6404 12.3621 19.4728C12.2975 19.5013 7.9338 21.4233 8.21108 21.3012C8.21108 21.3012 8.21108 21.3012 8.20401 21.3012C8.13869 21.3299 4.39164 22.9781 4.62483 22.8755C4.34252 21.9154 4.54727 20.8212 4.81545 19.8329C5.5145 17.3126 6.6227 14.9266 7.73108 12.5545C7.9429 12.0886 8.18988 11.5945 8.64885 11.3756C9.70015 10.8572 11.0305 12.0501 11.868 12.8511C13.6383 14.5486 15.5224 16.6828 18.2001 16.9032Z" fill="#FFCA28"/>
<path d="M32.0853 23.2762C32.0202 23.332 29.423 25.5627 29.4881 25.5069C29.4229 25.5627 26.0889 28.4137 26.2931 28.2391C26.228 28.2949 22.8941 31.1525 23.0981 30.9776C23.0335 31.0332 21.8805 32.0242 21.9538 31.9612L20.4368 33.2598C20.1282 33.5233 19.6523 33.3048 19.6523 32.8933C19.6529 32.8273 19.6866 29.0898 19.6845 29.3255C19.6978 27.4924 19.7616 19.2379 19.7746 17.5483C20.1345 18.7183 22.3332 20.4798 25.2645 21.8426C28.1959 23.2119 30.9474 23.7583 32.0853 23.2762Z" fill="#E2212E"/>
<path d="M31.0555 24.1603C30.9905 24.2161 28.6996 26.1849 28.8458 26.0593C28.7806 26.1151 25.4438 28.9731 25.6479 28.7983C25.5827 28.8541 22.2531 31.7051 22.4572 31.5303L21.9558 31.961C21.8146 31.7209 21.7018 31.4739 21.5958 31.2197C20.6216 28.8195 20.6709 26.031 21.7298 23.6661C21.9205 23.2426 22.1817 22.7978 22.6195 22.6496C23.1136 22.4872 23.629 22.7554 24.0948 22.9814C26.2339 24.0332 28.6905 24.4497 31.0555 24.1603Z" fill="#F72F43"/>
<path d="M24.5654 19.4773C23.8413 18.9359 23.9814 17.7937 24.5911 17.1256C25.1122 16.5548 25.8006 16.2853 26.3452 15.8559C27.1167 15.2472 27.5932 14.2591 27.5894 13.2766C27.5866 12.2732 26.9992 10.7824 28.8268 9.56606C29.3899 9.19189 30.0158 8.97185 30.6204 8.75903L30.8339 9.36548C30.2663 9.56512 29.6787 9.77166 29.1828 10.1012C27.7081 11.0838 28.2294 12.1535 28.2323 13.2741C28.2373 14.4496 27.6667 15.6324 26.7432 16.3606C26.1599 16.8209 25.5054 17.0782 25.0657 17.5594C24.7201 17.9373 24.5512 18.6633 24.9508 18.9625L24.5654 19.4773Z" fill="#28B6F4"/>
<path d="M28.4276 20.9365L28.6887 20.3489C29.3441 20.6405 30.1954 20.5881 31.0216 20.2045C31.8101 19.8369 32.4994 19.2239 33.1077 18.6833L33.5346 19.1636C32.8937 19.7336 32.1673 20.38 31.2928 20.7871C30.3923 21.2064 29.3278 21.3361 28.4276 20.9365Z" fill="#FFCA28"/>
<path d="M22.9011 12.6178L22.9149 11.9749C25.3901 12.0369 25.0818 11.188 26.8907 7.95832C27.7036 6.5065 28.222 6.03349 30.3467 5.46851L30.5125 6.09002C28.5437 6.61314 28.1707 6.98794 27.452 8.27222C25.6823 11.4327 25.8402 12.6761 22.9011 12.6178Z" fill="#FFCA28"/>
<path d="M21.8069 5.57491C19.99 4.25592 17.6026 3.77472 15.4153 4.287L15.2684 3.66109C17.6314 3.1077 20.2186 3.62719 22.1848 5.05447L21.8069 5.57491Z" fill="#FFCA28"/>
<path d="M31.3878 16.3352C30.844 16.1696 30.3117 15.9666 29.7958 15.7279C30.2555 15.5331 30.7046 15.2122 30.8535 14.7357C30.9795 14.3321 30.8678 13.897 30.7559 13.4893C31.3518 13.6019 31.9818 13.7149 32.5777 13.8275C32.6932 14.3448 32.6145 14.8192 32.4054 15.3063C32.1962 15.7934 31.8424 16.0627 31.3878 16.3352Z" fill="#8EECD3"/>
<path d="M19.6387 13.7222C19.0949 13.5566 18.5626 13.3535 18.0468 13.1148C18.5064 12.92 18.9556 12.5991 19.1044 12.1226C19.2304 11.719 19.1187 11.284 19.0068 10.8762C19.6027 10.9888 20.2328 11.1018 20.8286 11.2145C20.9441 11.7318 20.8654 12.2062 20.6563 12.6933C20.4471 13.1803 20.0933 13.4496 19.6387 13.7222Z" fill="#8EECD3"/>
<path d="M26.3484 5.47142C25.8046 5.30587 25.2723 5.10279 24.7565 4.86408C25.2161 4.66931 25.6653 4.3484 25.8141 3.87191C25.9401 3.46831 25.8284 3.03325 25.7165 2.62549C26.3124 2.73812 26.9425 2.85111 27.5383 2.96374C27.6538 3.48108 27.5751 3.95546 27.366 4.44252C27.1568 4.92958 26.8031 5.19892 26.3484 5.47142Z" fill="#28B6F4"/>
<path d="M11.3289 8.30174C10.7851 8.1362 10.2528 7.93311 9.73694 7.69441C10.1966 7.49964 10.6457 7.17872 10.7946 6.70223C10.9206 6.29863 10.8089 5.86358 10.697 5.45581C11.2929 5.56844 11.923 5.68143 12.5188 5.79406C12.6343 6.3114 12.5556 6.78578 12.3465 7.27284C12.1373 7.75991 11.7835 8.02924 11.3289 8.30174Z" fill="#F990E8"/>
<path d="M23.0995 30.9798L22.4571 31.5304L19.6756 30.1892L19.6827 29.3279L23.0995 30.9798Z" fill="#F2F8FD"/>
<path d="M26.2904 28.2407L25.6479 28.7984L19.7109 25.9252L19.718 25.064L26.2904 28.2407Z" fill="#F2F8FD"/>
<path d="M29.4883 25.5087L28.8458 26.0593L19.7392 21.6613L19.7463 20.8L29.4883 25.5087Z" fill="#F2F8FD"/>
<path d="M16.2871 17.7504L15.6306 18.0399C15.3651 17.7746 14.9737 16.8338 14.6918 16.3738C14.1624 15.5267 13.2586 14.9196 12.2703 14.7502C11.8301 14.6724 11.1857 14.6706 10.6749 14.3548C9.53845 13.663 9.66838 12.1155 9.31951 11.1993C9.17835 10.8251 8.87468 10.3945 8.45121 10.3239C8.0521 10.2707 7.36987 10.5108 6.62982 9.66737L6.89817 8.79907C7.12395 9.25084 7.45589 9.54737 7.79473 9.59679C8.07549 9.63417 8.28266 9.57841 8.5641 9.63208C9.17835 9.73088 9.70781 10.225 9.98305 10.9451C10.3299 11.8764 10.2333 13.2516 11.042 13.7548C11.3869 13.9598 11.8381 13.964 12.3903 14.0513C13.5693 14.256 14.6565 14.9831 15.2918 15.9997C15.6663 16.6063 15.85 17.2252 16.2871 17.7504Z" fill="#F72F43"/>
<path d="M12.3621 19.4727L11.7125 19.7551C11.6632 19.6703 11.6138 19.5856 11.5643 19.5009C11.0349 18.6538 10.1312 18.0467 9.14297 17.8773C8.56962 17.7761 8.03975 17.7862 7.54753 17.4819C7.06754 17.1855 6.72853 16.6489 6.54515 15.8936C6.3517 15.0928 6.31578 13.7666 5.43677 13.4792L5.64858 12.8086C6.17098 12.9709 6.60857 13.4369 6.85572 14.0722C7.07541 14.6621 7.12023 15.2494 7.22989 15.7241C7.58002 17.1425 8.24695 17.0178 9.26293 17.1784C10.4911 17.3916 11.6673 18.1611 12.3621 19.4727Z" fill="#F72F43"/>
<path d="M8.20402 21.3012L7.48394 21.6188C6.16135 20.6646 5.33968 21.1677 4.42025 20.6093C4.04608 20.3764 3.75654 20.0022 3.56592 19.4869L3.97542 18.1738C4.08664 18.7292 4.18796 19.6385 4.79443 20.0022C5.13162 20.2177 5.58812 20.2144 6.13565 20.3058C6.89812 20.4399 7.6182 20.7858 8.20402 21.3012Z" fill="#F72F43"/>
<path d="M11.6998 16.3501C11.8211 16.3285 11.9264 16.1871 11.8584 15.9381C11.7177 15.4226 11.0619 15.033 10.7254 15.0025C10.4699 14.9793 10.3989 15.1599 10.4852 15.3686C10.759 16.0313 11.4978 16.3861 11.6998 16.3501Z" fill="#FF9F1C"/>
<path d="M10.0205 15.5843C10.0853 15.5727 10.1416 15.4971 10.1053 15.364C10.0301 15.0884 9.67951 14.8802 9.49965 14.8639C9.36305 14.8515 9.32511 14.948 9.37122 15.0596C9.51759 15.4138 9.91254 15.6035 10.0205 15.5843Z" fill="#FF9F1C"/>
<path d="M32.0852 23.2762L31.6996 23.6105C28.2409 23.8355 24.7052 22.8712 21.8445 20.904C21.127 20.4102 20.6036 19.9966 19.7552 19.8755L19.7746 17.5483C20.1344 18.7183 22.3331 20.4798 25.2644 21.8426C28.1959 23.2119 30.9473 23.7583 32.0852 23.2762Z" fill="black"/>
<path d="M19.8452 16.1855L19.1831 16.4748C14.7316 15.7113 11.1949 12.4933 8.97457 8.49694C8.56865 7.75488 8.2315 7.25957 7.35455 7.32693L7.92019 5.52051C7.94593 6.97981 9.80388 9.69264 12.6517 12.2384C15.4804 14.7712 18.3988 16.3269 19.8452 16.1855Z" fill="black"/>
</svg>
