<svg width="28" height="28" viewBox="0 0 28 28" fill="none" xmlns="http://www.w3.org/2000/svg">
<g filter="url(#filter0_d_618_3338)">
<circle cx="14" cy="10" r="10" fill="white"/>
<path opacity="0.4" d="M18.6624 14.0561H15.3407C15.0166 14.0561 14.7531 14.3238 14.7531 14.653C14.7531 14.9829 15.0166 15.25 15.3407 15.25H18.6624C18.9865 15.25 19.25 14.9829 19.25 14.653C19.25 14.3238 18.9865 14.0561 18.6624 14.0561Z" fill="#071334"/>
<path d="M13.0136 7.02726L16.1612 9.57065C16.2371 9.63147 16.2501 9.74309 16.1908 9.82085L12.4593 14.6831C12.2247 14.9835 11.879 15.1534 11.5086 15.1597L9.47156 15.1848C9.36292 15.186 9.26785 15.1108 9.24316 15.0029L8.78019 12.99C8.69994 12.6201 8.78019 12.2376 9.01476 11.9428L12.7648 7.05736C12.8253 6.97898 12.9371 6.96518 13.0136 7.02726Z" fill="#071334"/>
<path opacity="0.4" d="M17.5704 8.05484L16.9636 8.81234C16.9025 8.88947 16.7926 8.90201 16.7167 8.84056C15.979 8.24359 14.0901 6.71166 13.566 6.28714C13.4894 6.22443 13.4789 6.11281 13.5407 6.03505L14.1259 5.30828C14.6567 4.62478 15.5827 4.56207 16.3296 5.15779L17.1877 5.84129C17.5395 6.1172 17.7741 6.4809 17.8543 6.86341C17.9469 7.28417 17.8482 7.69741 17.5704 8.05484Z" fill="#071334"/>
</g>
<defs>
<filter id="filter0_d_618_3338" x="0" y="0" width="28" height="28" filterUnits="userSpaceOnUse" color-interpolation-filters="sRGB">
<feFlood flood-opacity="0" result="BackgroundImageFix"/>
<feColorMatrix in="SourceAlpha" type="matrix" values="0 0 0 0 0 0 0 0 0 0 0 0 0 0 0 0 0 0 127 0" result="hardAlpha"/>
<feOffset dy="4"/>
<feGaussianBlur stdDeviation="2"/>
<feComposite in2="hardAlpha" operator="out"/>
<feColorMatrix type="matrix" values="0 0 0 0 0 0 0 0 0 0 0 0 0 0 0 0 0 0 0.25 0"/>
<feBlend mode="normal" in2="BackgroundImageFix" result="effect1_dropShadow_618_3338"/>
<feBlend mode="normal" in="SourceGraphic" in2="effect1_dropShadow_618_3338" result="shape"/>
</filter>
</defs>
</svg>
