<svg width="28" height="28" viewBox="0 0 28 28" fill="none" xmlns="http://www.w3.org/2000/svg">
<circle cx="14" cy="14" r="14" fill="url(#paint0_linear_842_1041)" fill-opacity="0.5"/>
<path fill-rule="evenodd" clip-rule="evenodd" d="M16.5702 12.476H11.429C11.1185 12.476 10.8665 12.224 10.8665 11.9135C10.8665 11.603 11.1185 11.351 11.429 11.351H16.5702C16.8807 11.351 17.1327 11.603 17.1327 11.9135C17.1327 12.224 16.8807 12.476 16.5702 12.476ZM19.9767 14.7425L19.9745 13.1967C19.9745 7.50125 19.0812 6.5 14 6.5C8.91874 6.5 8.02549 7.50125 8.02549 13.1967L8.02324 14.7425C8.01649 18.9613 8.01349 20.5407 8.65774 21.185C8.86624 21.3942 9.14299 21.5 9.47974 21.5C10.196 21.5 10.9925 20.8197 11.8362 20.099C12.5832 19.4607 13.43 18.7377 14 18.7377C14.57 18.7377 15.4167 19.4607 16.1637 20.099C17.0075 20.8197 17.804 21.5 18.5202 21.5C18.857 21.5 19.1337 21.3942 19.3422 21.185C19.9865 20.5407 19.9835 18.9613 19.9767 14.7425Z" fill="white"/>
<defs>
<linearGradient id="paint0_linear_842_1041" x1="14" y1="0" x2="14" y2="28" gradientUnits="userSpaceOnUse">
<stop stop-color="#C1C1C1" stop-opacity="0.5"/>
<stop offset="1" stop-opacity="0.3"/>
</linearGradient>
</defs>
</svg>
