<svg width="22" height="19" viewBox="0 0 22 19" fill="none" xmlns="http://www.w3.org/2000/svg">
<path d="M15.6875 0.9375C13.7188 0.9375 12.0069 1.82531 11 3.31312C9.99313 1.82531 8.28125 0.9375 6.3125 0.9375C4.82119 0.939237 3.39146 1.53243 2.33694 2.58694C1.28243 3.64146 0.689237 5.07119 0.6875 6.5625C0.6875 9.3 2.39375 12.1491 5.75937 15.0291C7.30162 16.3432 8.96752 17.5049 10.7338 18.4978C10.8156 18.5418 10.9071 18.5648 11 18.5648C11.0929 18.5648 11.1844 18.5418 11.2662 18.4978C13.0325 17.5049 14.6984 16.3432 16.2406 15.0291C19.6062 12.1491 21.3125 9.3 21.3125 6.5625C21.3108 5.07119 20.7176 3.64146 19.6631 2.58694C18.6085 1.53243 17.1788 0.939237 15.6875 0.9375ZM11 17.3541C9.46156 16.4663 1.8125 11.7863 1.8125 6.5625C1.81374 5.36941 2.28825 4.22553 3.13189 3.38189C3.97553 2.53825 5.11941 2.06374 6.3125 2.0625C8.21375 2.0625 9.81031 3.07781 10.4797 4.71281C10.5221 4.81598 10.5942 4.90422 10.6868 4.96632C10.7795 5.02842 10.8885 5.06158 11 5.06158C11.1115 5.06158 11.2205 5.02842 11.3132 4.96632C11.4058 4.90422 11.4779 4.81598 11.5203 4.71281C12.1897 3.07781 13.7862 2.0625 15.6875 2.0625C16.8806 2.06374 18.0245 2.53825 18.8681 3.38189C19.7118 4.22553 20.1863 5.36941 20.1875 6.5625C20.1875 11.7863 12.5384 16.4663 11 17.3541Z" fill="#E7333B"/>
</svg>
