<svg width="16" height="16" viewBox="0 0 16 16" fill="none" xmlns="http://www.w3.org/2000/svg">
<path fill-rule="evenodd" clip-rule="evenodd" d="M11.6209 2.746C10.6335 1.72734 9.34755 1.16667 7.99955 1.16667C6.65155 1.16667 5.36488 1.72801 4.37688 2.74734C3.37421 3.78134 2.82355 5.17067 2.86688 6.55867C2.93621 8.788 4.44421 10.4153 5.77488 11.8507C6.79021 12.9453 7.66621 13.8907 7.66621 14.8333H8.33288C8.33288 13.8613 9.21088 12.928 10.2269 11.8467C11.5562 10.4327 13.0635 8.83 13.1329 6.55867C13.1755 5.17 12.6242 3.78 11.6209 2.746Z" fill="#84CBFF" fill-opacity="0.4"/>
<path d="M6.23364 6.56681C6.23364 7.54081 7.02631 8.33347 8.00031 8.33347C8.97431 8.33347 9.76698 7.54081 9.76698 6.56681C9.76698 5.59281 8.97431 4.80014 8.00031 4.80014C7.02631 4.80014 6.23364 5.59281 6.23364 6.56681Z" fill="#071334"/>
</svg>
