<svg width="16" height="17" viewBox="0 0 16 17" fill="none" xmlns="http://www.w3.org/2000/svg">
<path opacity="0.4" fill-rule="evenodd" clip-rule="evenodd" d="M11.621 3.24602C10.6336 2.22735 9.34763 1.66669 7.99963 1.66669C6.65163 1.66669 5.36496 2.22802 4.37696 3.24735C3.3743 4.28135 2.82363 5.67069 2.86696 7.05869C2.9363 9.28802 4.4443 10.9154 5.77496 12.3507C6.7903 13.4454 7.6663 14.3907 7.6663 15.3334H8.33296C8.33296 14.3614 9.21096 13.428 10.227 12.3467C11.5563 10.9327 13.0636 9.33002 13.133 7.05869C13.1756 5.67002 12.6243 4.28002 11.621 3.24602Z" fill="#343434"/>
<path d="M6.23373 7.06684C6.23373 8.04084 7.02639 8.8335 8.00039 8.8335C8.97439 8.8335 9.76706 8.04084 9.76706 7.06684C9.76706 6.09284 8.97439 5.30017 8.00039 5.30017C7.02639 5.30017 6.23373 6.09284 6.23373 7.06684Z" fill="#343434"/>
</svg>
