
<svg width="60" height="60" viewBox="0 0 60 60" fill="none" xmlns="http://www.w3.org/2000/svg">
<g clip-path="url(#clip0_358_1720)">
<path d="M21.9207 20.7937C27.6627 20.7937 32.3176 16.1389 32.3176 10.3969C32.3176 4.65484 27.6627 0 21.9207 0C16.1786 0 11.5238 4.65484 11.5238 10.3969C11.5238 16.1389 16.1786 20.7937 21.9207 20.7937Z" fill="#00000A"/>
<path d="M21.4294 44.9513L11.386 23.1778C11.386 23.1778 0.850342 23.3184 0.850342 33.0113V44.9513H21.4294Z" fill="#00000A"/>
<path d="M22.4128 44.9513L32.4563 23.1778C32.4563 23.1778 42.9919 23.3184 42.9919 33.0113V44.9513H22.4128Z" fill="#00000A"/>
<path d="M21.9206 23.1778H14.6869L21.9206 39.1922L29.1553 23.1778H21.9206Z" fill="#E21B1B"/>
<path d="M45.5559 60C53.0635 60 59.1497 53.9139 59.1497 46.4062C59.1497 38.8986 53.0635 32.8125 45.5559 32.8125C38.0483 32.8125 31.9622 38.8986 31.9622 46.4062C31.9622 53.9139 38.0483 60 45.5559 60Z" fill="#E21B1B"/>
<path d="M49.9289 40.0478L39.2025 50.7742L41.1912 52.7629L51.9176 42.0365L49.9289 40.0478Z" fill="white"/>
<path d="M41.1933 40.0451L39.2046 42.0338L49.931 52.7602L51.9197 50.7715L41.1933 40.0451Z" fill="white"/>
</g>
<defs>
<clipPath id="clip0_358_1720">
<rect width="60" height="60" fill="white"/>
</clipPath>
</defs>
</svg>
