<svg width="32" height="32" viewBox="0 0 32 32" fill="none" xmlns="http://www.w3.org/2000/svg">
<path opacity="0.6" fill-rule="evenodd" clip-rule="evenodd" d="M16 3C6.40267 3 3 6.40267 3 16C3 25.5973 6.40267 29 16 29C25.5987 29 29 25.5973 29 16C29 6.40267 25.5987 3 16 3Z" fill="white"/>
<path d="M14.3862 20.6348C14.8129 20.6348 15.2702 20.4788 15.6702 20.3134C16.6129 19.9228 21.0076 17.5068 21.0076 15.8081C21.0076 14.1361 16.7062 11.7668 15.6076 11.3121C15.1622 11.1268 14.1209 10.6988 13.4916 11.3268L13.4908 11.3276C13.3113 11.5084 12.7675 12.0562 12.7529 15.7828C12.7369 19.5334 13.3058 20.1024 13.4914 20.2879L13.4916 20.2881C13.7449 20.5414 14.0556 20.6348 14.3862 20.6348Z" fill="white"/>
</svg>
