<svg width="40" height="40" viewBox="0 0 40 40" fill="none" xmlns="http://www.w3.org/2000/svg">
<rect width="40" height="40" rx="10" fill="white"/>
<path fill-rule="evenodd" clip-rule="evenodd" d="M24.4 15.2873C23.28 15.2073 22.0999 15.1675 20.8699 15.1575H19.3699C18.1599 15.1675 16.9 15.2173 15.6 15.2873H15.58C11.55 15.6573 10.25 17.4873 10.25 22.7873C10.25 30.3873 13.1 30.3873 20 30.3873C26.9 30.3873 29.75 30.3873 29.75 22.7873C29.75 17.4873 28.45 15.6573 24.4 15.2873Z" fill="#84CBFF"/>
<path fill-rule="evenodd" clip-rule="evenodd" d="M20.7498 20.5919L22.3888 18.9489C22.5348 18.8019 22.7278 18.7279 22.9198 18.7279C23.1108 18.7279 23.3028 18.8019 23.4488 18.9469C23.7428 19.2399 23.7428 19.7149 23.4508 20.0079L20.5308 22.9359C20.2498 23.2189 19.7498 23.2189 19.4688 22.9359L16.5488 20.0079C16.2568 19.7149 16.2568 19.2399 16.5508 18.9469C16.8448 18.6549 17.3188 18.6549 17.6108 18.9489L19.2498 20.5919V10.3551C19.2498 9.9434 19.5954 9.61283 20.007 9.61283C20.4189 9.61283 20.7498 9.94377 20.7498 10.3557V20.5919Z" fill="#071334"/>
</svg>
