<svg width="36" height="36" viewBox="0 0 36 36" fill="none" xmlns="http://www.w3.org/2000/svg">
<g clip-path="url(#clip0_254_1854)">
<path d="M32.0339 14.644C31.3599 14.644 30.8135 15.1904 30.8135 15.8644V23.7966H33.2542V15.8644C33.2542 15.1904 32.7079 14.644 32.0339 14.644Z" fill="#F5E038"/>
<path opacity="0.7" d="M33.2542 15.8644C33.2542 15.2867 32.8525 14.8041 32.3136 14.6775V23.7965H33.2542V15.8644Z" fill="#F9AA0C"/>
<path d="M29.5932 17.0847C28.9192 17.0847 28.3729 17.6311 28.3729 18.3051V26.2373H30.8136V18.3051C30.8136 17.6311 30.2672 17.0847 29.5932 17.0847Z" fill="#F5E038"/>
<path opacity="0.7" d="M30.8135 18.3051C30.8135 17.7459 30.4368 17.2756 29.9236 17.1313V26.2374H30.8135V18.3051Z" fill="#F9AA0C"/>
<path d="M27.1525 20.1355C26.4785 20.1355 25.9322 20.6819 25.9322 21.3558V29.2881H28.3729V21.3558C28.3729 20.6819 27.8266 20.1355 27.1525 20.1355Z" fill="#F5E038"/>
<path opacity="0.7" d="M28.3728 21.3559C28.3728 20.7967 27.9961 20.3263 27.483 20.1821V29.2882H28.3728V21.3559Z" fill="#F9AA0C"/>
<path d="M34.4156 17.0517C33.7593 17.0825 33.2543 17.6481 33.2543 18.3051V22.2552C32.7717 21.8468 32.0491 21.8724 31.5981 22.33L28.3729 25.6041L28.3871 25.6183L28.3729 25.6272H25.9322C23.2364 25.6272 21.0508 27.8127 21.0508 30.5086V36.0001H26.5424V32.9492L30.2034 30.5085L35.695 25.017V18.2706C35.6949 17.5771 35.1164 17.0188 34.4156 17.0517Z" fill="#F9C900"/>
<path d="M29.3886 26.6199L29.664 26.8954C29.9036 27.1349 30.2924 27.1335 30.5301 26.8921L33.3367 24.0429C33.7471 23.6263 33.7965 22.9898 33.4889 22.5195L29.3886 26.6199Z" fill="#F9AA0C"/>
<path d="M34.4745 17.052V24.4068L28.983 29.8984L25.0193 32.1634C24.8291 32.2721 24.7118 32.4742 24.7118 32.6932V36H26.5423V32.9492L30.2033 30.5085L35.6949 25.0169V18.2706C35.6949 17.5968 35.1483 17.0522 34.4745 17.052Z" fill="#F9AA0C"/>
<path d="M3.96613 14.644C4.64015 14.644 5.18648 15.1904 5.18648 15.8644V23.7966H2.74579V15.8644C2.74579 15.1904 3.29212 14.644 3.96613 14.644Z" fill="#F5E038"/>
<path opacity="0.7" d="M2.74579 15.8644C2.74579 15.2867 3.14748 14.8041 3.68643 14.6775V23.7965H2.74579V15.8644Z" fill="#F9AA0C"/>
<path d="M6.40681 17.0847C7.08082 17.0847 7.62715 17.6311 7.62715 18.3051V26.2373H5.18646V18.3051C5.18646 17.6311 5.73279 17.0847 6.40681 17.0847Z" fill="#F5E038"/>
<path opacity="0.7" d="M5.18646 18.3051C5.18646 17.7459 5.5632 17.2756 6.07634 17.1313V26.2374H5.18646V18.3051Z" fill="#F9AA0C"/>
<path d="M8.84748 20.1355C9.5215 20.1355 10.0678 20.6819 10.0678 21.3558V29.2881H7.62714V21.3558C7.62714 20.6819 8.17346 20.1355 8.84748 20.1355Z" fill="#F5E038"/>
<path opacity="0.7" d="M7.62714 21.3559C7.62714 20.7967 8.00387 20.3263 8.51701 20.1821V29.2882H7.62714V21.3559Z" fill="#F9AA0C"/>
<path d="M1.58438 17.0517C2.24075 17.0825 2.74573 17.6481 2.74573 18.3051V22.2552C3.22829 21.8468 3.95096 21.8724 4.40187 22.33L7.62711 25.6041L7.6129 25.6183L7.62711 25.6272H10.0678C12.7636 25.6272 14.9492 27.8127 14.9492 30.5086V36.0001H9.45762V32.9492L5.79659 30.5085L0.305115 25.017V18.2707C0.305115 17.5771 0.883646 17.0188 1.58438 17.0517Z" fill="#F9C900"/>
<path d="M6.61136 26.6199L6.33595 26.8954C6.09639 27.1349 5.70756 27.1335 5.46984 26.8921L2.66324 24.0429C2.2529 23.6263 2.20347 22.9898 2.51109 22.5195L6.61136 26.6199Z" fill="#F9AA0C"/>
<path d="M1.52546 17.052V24.4068L7.01701 29.8984L10.9807 32.1634C11.1709 32.2721 11.2882 32.4742 11.2882 32.6932V36H9.45769V32.9492L5.79666 30.5085L0.305115 25.017V18.2707C0.305115 17.5968 0.851654 17.0522 1.52546 17.052Z" fill="#F9AA0C"/>
<path d="M23.4915 8.54251H19.8305V4.2713C19.8305 3.93437 19.5573 3.66113 19.2203 3.66113H16.7796C16.4427 3.66113 16.1695 3.93437 16.1695 4.2713V8.54251H12.5084C12.1715 8.54251 11.8983 8.81574 11.8983 9.15268V11.5934C11.8983 11.9303 12.1715 12.2035 12.5084 12.2035H16.1695V23.1866C16.1695 23.5235 16.4427 23.7967 16.7796 23.7967H19.2203C19.5573 23.7967 19.8305 23.5235 19.8305 23.1866V12.2035H23.4915C23.8285 12.2035 24.1017 11.9302 24.1017 11.5933V9.15261C24.1017 8.81567 23.8285 8.54251 23.4915 8.54251Z" fill="#40CACF"/>
<path d="M23.4915 9.15254H19.2203V4.27124H16.7796V9.15254H12.5084V11.5932H16.7796V23.1865H19.2203V11.5932H23.4915V9.15254Z" fill="#99EFF2"/>
<path d="M17.3899 22.5763V10.983H13.1187V9.76265H17.3899V4.88135H18.6102V9.76265H22.8814V10.983H18.6102V22.5763H17.3899Z" fill="#3AB0B0"/>
<path d="M18 2.44069C17.6631 2.44069 17.3898 2.16745 17.3898 1.83052V0.610172C17.3898 0.273234 17.6631 0 18 0C18.3369 0 18.6102 0.273234 18.6102 0.610172V1.83052C18.6102 2.16745 18.3369 2.44069 18 2.44069Z" fill="#FF8397"/>
<path d="M13.7293 3.58533C13.5185 3.58533 13.3134 3.47585 13.2003 3.28018L12.5901 2.22338C12.4217 1.93158 12.5217 1.55836 12.8134 1.38989C13.1052 1.2215 13.4785 1.32148 13.6469 1.61321L14.2571 2.67C14.4872 3.06832 14.1921 3.58533 13.7293 3.58533Z" fill="#FF8397"/>
<path d="M10.6015 6.71204C10.498 6.71204 10.393 6.68567 10.297 6.6302L9.24021 6.02003C8.94841 5.85156 8.84843 5.47834 9.01689 5.18654C9.18536 4.89467 9.55865 4.79469 9.85038 4.96323L10.9072 5.5734C11.199 5.74187 11.299 6.11509 11.1305 6.40689C11.0176 6.60257 10.8125 6.71204 10.6015 6.71204Z" fill="#FF8397"/>
<path d="M9.45759 10.983H8.23725C7.90031 10.983 7.62708 10.7098 7.62708 10.3729C7.62708 10.0359 7.90031 9.7627 8.23725 9.7627H9.45759C9.79453 9.7627 10.0678 10.0359 10.0678 10.3729C10.0678 10.7098 9.7946 10.983 9.45759 10.983Z" fill="#FF8397"/>
<path d="M9.54574 15.8646C9.33487 15.8646 9.12977 15.7551 9.01671 15.5594C8.84824 15.2676 8.94823 14.8944 9.24002 14.7259L10.2968 14.1158C10.5886 13.9473 10.9618 14.0473 11.1303 14.3391C11.2988 14.6309 11.1988 15.0041 10.907 15.1726L9.85019 15.7827C9.75422 15.8382 9.64938 15.8646 9.54574 15.8646Z" fill="#FF8397"/>
<path d="M13.1181 19.438C12.6555 19.438 12.3602 18.921 12.5902 18.5226L13.2004 17.4658C13.3689 17.174 13.7421 17.074 14.0339 17.2425C14.3257 17.411 14.4257 17.7842 14.2572 18.076L13.647 19.1328C13.534 19.3285 13.3289 19.438 13.1181 19.438Z" fill="#FF8397"/>
<path d="M22.8819 19.4379C22.671 19.4379 22.4659 19.3284 22.3528 19.1328L21.7427 18.076C21.5742 17.7842 21.6742 17.4109 21.966 17.2425C22.2578 17.074 22.631 17.174 22.7995 17.4658L23.4096 18.5226C23.6398 18.9209 23.3446 19.4379 22.8819 19.4379Z" fill="#FF8397"/>
<path d="M26.4542 15.8644C26.3507 15.8644 26.2458 15.838 26.1497 15.7826L25.0929 15.1724C24.8011 15.0039 24.7011 14.6307 24.8696 14.3389C25.0381 14.0471 25.4114 13.947 25.7031 14.1156L26.7599 14.7258C27.0517 14.8942 27.1517 15.2675 26.9832 15.5593C26.8701 15.755 26.665 15.8644 26.4542 15.8644Z" fill="#FF8397"/>
<path d="M27.7626 10.983H26.5423C26.2054 10.983 25.9321 10.7098 25.9321 10.3729C25.9321 10.0359 26.2054 9.7627 26.5423 9.7627H27.7626C28.0996 9.7627 28.3728 10.0359 28.3728 10.3729C28.3728 10.7098 28.0997 10.983 27.7626 10.983Z" fill="#FF8397"/>
<path d="M25.3985 6.712C25.1876 6.712 24.9825 6.60252 24.8694 6.40684C24.701 6.11504 24.8009 5.74182 25.0927 5.57335L26.1495 4.96318C26.4413 4.79471 26.8146 4.8947 26.983 5.1865C27.1515 5.47829 27.0515 5.85151 26.7597 6.01998L25.7029 6.63015C25.6069 6.68556 25.502 6.712 25.3985 6.712Z" fill="#FF8397"/>
<path d="M22.2707 3.58523C21.808 3.58523 21.5128 3.06829 21.7427 2.6699L22.3529 1.6131C22.5214 1.32131 22.8946 1.22111 23.1864 1.38979C23.4782 1.55826 23.5782 1.93148 23.4097 2.22327L22.7995 3.28007C22.6866 3.47575 22.4815 3.58523 22.2707 3.58523Z" fill="#FF8397"/>
<path d="M7.9595 5.18651C7.856 5.18651 7.75102 5.16014 7.65497 5.10466L3.9559 2.96906C3.66411 2.80059 3.56412 2.42738 3.73259 2.13558C3.90113 1.84371 4.27421 1.74359 4.56608 1.91227L8.26508 4.04787C8.55687 4.21634 8.65686 4.58956 8.48839 4.88135C8.37547 5.07703 8.17036 5.18651 7.9595 5.18651Z" fill="#F36280"/>
<path d="M5.79666 10.983H1.52545C1.18852 10.983 0.915283 10.7098 0.915283 10.3729C0.915283 10.0359 1.18852 9.7627 1.52545 9.7627H5.79666C6.1336 9.7627 6.40683 10.0359 6.40683 10.3729C6.40683 10.7098 6.1336 10.983 5.79666 10.983Z" fill="#F36280"/>
<path d="M34.4746 10.983H30.2034C29.8664 10.983 29.5932 10.7098 29.5932 10.3729C29.5932 10.0359 29.8664 9.7627 30.2034 9.7627H34.4746C34.8115 9.7627 35.0847 10.0359 35.0847 10.3729C35.0847 10.7098 34.8116 10.983 34.4746 10.983Z" fill="#F36280"/>
<path d="M28.0406 5.1864C27.8297 5.1864 27.6246 5.07692 27.5115 4.88124C27.3431 4.58945 27.443 4.21623 27.7348 4.04776L31.4338 1.91216C31.7256 1.74369 32.0989 1.84367 32.2673 2.13547C32.4358 2.42727 32.3358 2.80049 32.044 2.96895L28.3451 5.10456C28.249 5.15996 28.1441 5.1864 28.0406 5.1864Z" fill="#F36280"/>
</g>
<defs>
<clipPath id="clip0_254_1854">
<rect width="36" height="36" fill="white"/>
</clipPath>
</defs>
</svg>
