<svg width="52" height="52" viewBox="0 0 52 52" fill="none" xmlns="http://www.w3.org/2000/svg">
<path fill-rule="evenodd" clip-rule="evenodd" d="M25.9999 3.81982C9.62204 3.81982 3.8197 9.62216 3.8197 26C3.8197 42.3778 9.62204 48.1802 25.9999 48.1802C42.3755 48.1802 48.18 42.3778 48.18 26C48.18 9.62216 42.3755 3.81982 25.9999 3.81982Z" fill="#071334"/>
<path d="M27.6242 27.625H33.7515C34.6485 27.625 35.3765 26.897 35.3765 26C35.3765 25.103 34.6485 24.375 33.7515 24.375H27.6242V18.2563C27.6242 17.3593 26.8962 16.6313 25.9992 16.6313C25.1022 16.6313 24.3742 17.3593 24.3742 18.2563V24.375H18.2468C17.3498 24.375 16.6218 25.103 16.6218 26C16.6218 26.897 17.3498 27.625 18.2468 27.625H24.3742V33.7437C24.3742 34.6407 25.1022 35.3687 25.9992 35.3687C26.8962 35.3687 27.6242 34.6407 27.6242 33.7437V27.625Z" fill="#84CBFF"/>
</svg>
