<svg width="40" height="40" viewBox="0 0 40 40" fill="none" xmlns="http://www.w3.org/2000/svg">
<rect width="40" height="40" rx="10" fill="white"/>
<path d="M17.8601 25.9999C17.723 25.9995 17.5874 25.9708 17.4618 25.9158C17.3362 25.8607 17.2233 25.7804 17.1301 25.6799L12.2701 20.5099C12.0884 20.3163 11.9911 20.0585 11.9995 19.7931C12.008 19.5277 12.1215 19.2766 12.3151 19.0949C12.5087 18.9132 12.7665 18.8159 13.0319 18.8244C13.2973 18.8328 13.5484 18.9463 13.7301 19.1399L17.8501 23.5299L26.2601 14.3299C26.3454 14.2236 26.4516 14.1359 26.5721 14.0722C26.6926 14.0084 26.8248 13.97 26.9607 13.9592C27.0966 13.9484 27.2332 13.9655 27.3622 14.0095C27.4912 14.0534 27.6099 14.1233 27.711 14.2148C27.812 14.3062 27.8933 14.4174 27.9498 14.5415C28.0063 14.6655 28.0369 14.7998 28.0396 14.936C28.0423 15.0723 28.0172 15.2077 27.9657 15.3339C27.9141 15.4601 27.8374 15.5745 27.7401 15.6699L18.6001 25.6699C18.5077 25.7723 18.3952 25.8544 18.2696 25.9112C18.144 25.968 18.0079 25.9982 17.8701 25.9999H17.8601Z" fill="#071334"/>
</svg>
