<svg width="16" height="16" viewBox="0 0 16 16" fill="none" xmlns="http://www.w3.org/2000/svg">
<path d="M12.8242 10.1832L11.1275 9.98946C10.928 9.96603 10.7258 9.98811 10.536 10.0541C10.3463 10.12 10.1739 10.2281 10.0319 10.3702L8.80281 11.5994C6.90659 10.6347 5.36526 9.09339 4.40061 7.19716L5.63644 5.96133C5.92368 5.67408 6.06396 5.27327 6.0172 4.86578L5.82348 3.18239C5.78575 2.85646 5.6294 2.55581 5.38424 2.33775C5.13907 2.11969 4.82224 1.99947 4.49414 2H3.33848C2.58362 2 1.95569 2.62794 2.00245 3.38279C2.3565 9.08764 6.91902 13.6435 12.6172 13.9975C13.372 14.0443 13.9999 13.4164 13.9999 12.6615V11.5059C14.0066 10.8312 13.4989 10.2633 12.8242 10.1832Z" fill="#071334"/>
</svg>
