<svg width="40" height="40" viewBox="0 0 40 40" fill="none" xmlns="http://www.w3.org/2000/svg">
<rect width="40" height="40" rx="10" fill="white"/>
<path fill-rule="evenodd" clip-rule="evenodd" d="M27.5139 20.914C27.1869 20.723 26.9909 20.382 26.9909 20C26.9909 19.618 27.1869 19.277 27.5149 19.087C28.9329 18.262 29.4199 16.43 28.6019 15.001C28.2029 14.307 27.5599 13.811 26.7899 13.604C26.0239 13.401 25.2239 13.507 24.5379 13.906C24.2139 14.096 23.8269 14.096 23.5009 13.907C23.1709 13.718 22.9739 13.375 22.9739 12.992C22.9739 11.343 21.6399 10 19.9999 10C18.3589 10 17.0249 11.343 17.0249 12.992C17.0249 13.376 16.8279 13.718 16.4979 13.908C16.1739 14.094 15.7869 14.096 15.4629 13.906C14.7749 13.507 13.9759 13.399 13.2079 13.605C12.4379 13.812 11.7959 14.308 11.3979 15.002C10.5799 16.431 11.0679 18.263 12.4859 19.086C12.8129 19.276 13.0079 19.618 13.0079 20C13.0079 20.382 12.8129 20.724 12.4859 20.913C11.0679 21.738 10.5799 23.571 11.3979 24.999C11.7959 25.692 12.4379 26.188 13.2069 26.395C13.9739 26.6 14.7749 26.494 15.4629 26.095C15.7859 25.905 16.1729 25.905 16.4979 26.092C16.8279 26.282 17.0249 26.624 17.0249 27.008C17.0249 28.657 18.3589 30 19.9999 30C21.6399 30 22.9739 28.657 22.9739 27.008C22.9739 26.625 23.1709 26.282 23.5009 26.093C23.8259 25.905 24.2129 25.905 24.5379 26.095C25.2249 26.494 26.0249 26.598 26.7899 26.396C27.5599 26.189 28.2029 25.693 28.6019 24.999C29.4199 23.571 28.9329 21.739 27.5139 20.914Z" fill="#071334"/>
<path d="M16.9998 20C16.9998 21.654 18.3458 23 19.9998 23C21.6538 23 22.9998 21.654 22.9998 20C22.9998 18.346 21.6538 17 19.9998 17C18.3458 17 16.9998 18.346 16.9998 20Z" fill="#84CBFF"/>
</svg>
