<svg width="20" height="20" viewBox="0 0 20 20" fill="none" xmlns="http://www.w3.org/2000/svg">
<path d="M17 7.9V12.7244C17 13.2319 16.8621 13.7299 16.601 14.165L14.9 17H5.1L3.39901 14.165C3.13791 13.7299 3 13.2319 3 12.7244V7.9C3 7.0497 3.75793 6.37653 4.63503 6.5191C5.32341 6.63103 5.8 7.27746 5.8 7.97489V11.4L5.81278 11.4191C5.77339 11.023 5.89609 10.6126 6.19264 10.3133C6.73114 9.76971 7.63212 9.88076 8.11414 10.475L9.37456 12.029C9.7792 12.5278 10 13.1505 10 13.7928C10 13.1505 10.2208 12.5278 10.6254 12.029L11.8859 10.475C12.3679 9.88076 13.2689 9.76971 13.8074 10.3133C14.1039 10.6126 14.2266 11.023 14.1872 11.4191L14.2 11.4V7.97489C14.2 7.27746 14.6766 6.63103 15.365 6.5191C16.2421 6.37653 17 7.0497 17 7.9ZM7.9 6.5H9.3V9.3C9.3 9.68658 9.61338 10 10 10C10.3866 10 10.7 9.68658 10.7 9.3V6.5H12.1C12.4866 6.5 12.8 6.18657 12.8 5.8C12.8 5.41338 12.4866 5.1 12.1 5.1H10.7V3.7C10.7 3.31338 10.3866 3 10 3C9.61338 3 9.3 3.31338 9.3 3.7V5.1H7.9C7.51338 5.1 7.2 5.41338 7.2 5.8C7.2 6.18657 7.51338 6.5 7.9 6.5Z" fill="#071334"/>
</svg>
