<svg width="16" height="16" viewBox="0 0 16 16" fill="none" xmlns="http://www.w3.org/2000/svg">
<path d="M7.66062 11.2131C7.66062 10.2643 8.03004 9.37207 8.70105 8.70105C9.37207 8.03004 10.264 7.66062 11.2131 7.66062C11.9921 7.66062 12.7329 7.91 13.3446 8.37047C13.3785 7.875 13.3995 7.32074 13.4004 6.70031C13.3987 5.1398 13.2677 3.99711 13.128 3.15738C12.8836 1.77379 11.6268 0.51707 10.2432 0.272617C9.40351 0.132617 8.26082 0.00164062 6.70004 0C5.13953 0.00164062 3.99656 0.132617 3.15684 0.272344C1.77352 0.516797 0.516797 1.77352 0.272344 3.15711C0.132617 3.99684 0.00191406 5.13953 0 6.70004C0.00191406 8.26055 0.132617 9.40351 0.272344 10.2432C0.516797 11.6268 1.77352 12.8836 3.15711 13.128C3.99684 13.2677 5.13953 13.3984 6.70031 13.4004C7.32074 13.3995 7.875 13.3785 8.37047 13.3446C7.91 12.7329 7.66062 11.9924 7.66062 11.2131ZM3.38953 3.23805H10.0108C10.439 3.23805 10.7863 3.58531 10.7863 4.01352C10.7863 4.44172 10.439 4.78898 10.0108 4.78898H3.38953C2.96133 4.78898 2.61406 4.44172 2.61406 4.01352C2.61406 3.58531 2.96133 3.23805 3.38953 3.23805ZM3.38953 8.0273C2.96133 8.0273 2.61406 7.68004 2.61406 7.25184C2.61406 6.82363 2.96133 6.47637 3.38953 6.47637H7.27644C7.70465 6.47637 8.05191 6.82363 8.05191 7.25184C8.05191 7.68004 7.70465 8.0273 7.27644 8.0273H3.38953Z" fill="#071334"/>
<path d="M11.2131 8.42621C9.67396 8.42621 8.42627 9.6739 8.42627 11.2131C8.42627 12.7523 9.67396 14 11.2131 14C12.7523 14 14 12.7523 14 11.2131C14 9.6739 12.7523 8.42621 11.2131 8.42621ZM11.7327 12.5959C11.7327 12.8827 11.5 13.1154 11.2131 13.1154C10.9263 13.1154 10.6936 12.8827 10.6936 12.5959V11.2251C10.6936 10.9383 10.9263 10.7056 11.2131 10.7056C11.5 10.7056 11.7327 10.9383 11.7327 11.2251V12.5959ZM11.7113 10.113C11.6922 10.2213 11.5938 10.3198 11.4855 10.3389C11.4199 10.3498 11.3302 10.36 11.2079 10.3602C11.0857 10.3602 10.9963 10.3498 10.9304 10.3389C10.8221 10.3198 10.7237 10.2213 10.7046 10.113C10.6936 10.0474 10.6835 9.95773 10.6832 9.83551C10.6832 9.71328 10.6936 9.62386 10.7046 9.55797C10.7237 9.44968 10.8221 9.35125 10.9304 9.33211C10.996 9.32117 11.0857 9.31105 11.2079 9.31078C11.3302 9.31078 11.4196 9.32117 11.4855 9.33211C11.5938 9.35125 11.6922 9.44968 11.7113 9.55797C11.7223 9.62359 11.7324 9.71328 11.7327 9.83551C11.7327 9.95773 11.7223 10.0471 11.7113 10.113Z" fill="#071334"/>
</svg>
