<svg width="24" height="24" viewBox="0 0 24 24" fill="none" xmlns="http://www.w3.org/2000/svg">
<g clip-path="url(#clip0_239_3362)">
<path d="M16.5 3.74998C16.4999 2.87013 16.8092 2.01826 17.3737 1.3434C17.9383 0.668542 18.7221 0.213678 19.5882 0.0583884C20.4542 -0.0969011 21.3473 0.0572728 22.1111 0.493936C22.875 0.9306 23.461 1.62195 23.7666 2.44702C24.0722 3.27209 24.0779 4.17835 23.7828 5.00724C23.4877 5.83613 22.9106 6.53487 22.1523 6.9812C21.3941 7.42753 20.5031 7.59303 19.6351 7.44876C18.7672 7.30448 17.9776 6.85961 17.4045 6.19198L7.32753 10.872C7.55919 11.6061 7.55919 12.3938 7.32753 13.128L17.4045 17.808C18.0103 17.1035 18.856 16.6489 19.7778 16.5325C20.6996 16.416 21.6318 16.6458 22.3938 17.1775C23.1558 17.7092 23.6932 18.5048 23.902 19.4102C24.1108 20.3155 23.9761 21.2662 23.5239 22.0778C23.0717 22.8895 22.3344 23.5044 21.4547 23.8034C20.5749 24.1024 19.6156 24.0642 18.7624 23.6961C17.9093 23.328 17.2232 22.6564 16.8371 21.8113C16.451 20.9662 16.3923 20.0079 16.6725 19.122L6.59553 14.442C6.09668 15.0233 5.43176 15.438 4.6902 15.6301C3.94864 15.8222 3.16603 15.7827 2.44764 15.5167C1.72925 15.2507 1.10955 14.7711 0.671893 14.1424C0.23424 13.5137 -0.000366211 12.766 -0.000366211 12C-0.000366211 11.2339 0.23424 10.4863 0.671893 9.85755C1.10955 9.22884 1.72925 8.74923 2.44764 8.48326C3.16603 8.21729 3.94864 8.17772 4.6902 8.36985C5.43176 8.56199 6.09668 8.97663 6.59553 9.55798L16.6725 4.87798C16.5578 4.51298 16.4997 4.13258 16.5 3.74998Z" fill="#040F1E"/>
</g>
<defs>
<clipPath id="clip0_239_3362">
<rect width="24" height="24" fill="white"/>
</clipPath>
</defs>
</svg>
