<svg width="35" height="35" viewBox="0 0 35 35" fill="none" xmlns="http://www.w3.org/2000/svg">
<path fill-rule="evenodd" clip-rule="evenodd" d="M3.4259 8.60002C3.4559 10.118 2.6299 12.17 1.5559 13.242C0.559309 14.2396 -0.000488281 15.592 -0.000488281 17.002C-0.000488281 18.4121 0.559309 19.7645 1.5559 20.762C2.6159 21.818 3.3959 23.65 3.4259 25.146C3.4539 26.47 3.9719 27.786 4.9819 28.794C5.91373 29.7278 7.16028 30.2804 8.4779 30.344C10.0599 30.424 12.1319 31.344 13.2519 32.464C14.2494 33.46 15.6013 34.0194 17.0109 34.0194C18.4205 34.0194 19.7724 33.46 20.7699 32.464C21.8899 31.344 23.9619 30.424 25.5439 30.344C26.8615 30.2804 28.1081 29.7278 29.0399 28.794C30.0113 27.8239 30.5685 26.5147 30.5939 25.142C30.6239 23.65 31.3939 21.83 32.4519 20.774C33.4523 19.7768 34.0155 18.423 34.0178 17.0105C34.0201 15.598 33.4611 14.2424 32.4639 13.242C31.3919 12.172 30.5639 10.118 30.5959 8.60202C30.611 7.88625 30.4809 7.17485 30.2134 6.51074C29.946 5.84664 29.5468 5.2436 29.0399 4.73802C28.5146 4.2113 27.8842 3.80107 27.1899 3.53402C26.4956 3.26697 25.7528 3.14908 25.0099 3.18802C23.5819 3.26002 21.7799 2.56802 20.7699 1.55602C19.7724 0.559431 18.42 -0.000366211 17.0099 -0.000366211C15.5998 -0.000366211 14.2474 0.559431 13.2499 1.55602C12.2419 2.56602 10.4379 3.26002 9.0099 3.18802C8.26733 3.14937 7.52494 3.2674 6.83098 3.53444C6.13701 3.80148 5.507 4.21156 4.9819 4.73802C4.47525 5.24337 4.07619 5.84608 3.80877 6.50982C3.54135 7.17356 3.41111 7.88458 3.4259 8.60002ZM23.0819 10.252C23.3116 10.3795 23.514 10.551 23.6774 10.7567C23.8409 10.9624 23.9622 11.1982 24.0344 11.4508C24.1067 11.7034 24.1284 11.9678 24.0985 12.2288C24.0685 12.4898 23.9875 12.7424 23.8599 12.972L18.3239 22.936C18.1805 23.2074 17.9766 23.4421 17.7279 23.622C17.3665 23.8835 16.9281 24.0166 16.4824 24.0003C16.0367 23.984 15.6092 23.8192 15.2679 23.532L9.7499 19.118C9.54477 18.9539 9.37399 18.7509 9.2473 18.5208C9.1206 18.2906 9.04048 18.0378 9.01151 17.7766C8.98254 17.5155 9.00528 17.2512 9.07844 16.9989C9.1516 16.7466 9.27374 16.5111 9.4379 16.306C9.60205 16.1009 9.805 15.9301 10.0352 15.8034C10.2653 15.6767 10.5182 15.5966 10.7793 15.5676C11.0404 15.5387 11.3047 15.5614 11.557 15.6346C11.8093 15.7077 12.0448 15.8299 12.2499 15.994L15.9559 18.96L20.3619 11.028C20.4895 10.7985 20.6611 10.5963 20.8669 10.4331C21.0727 10.2698 21.3086 10.1487 21.5612 10.0767C21.8138 10.0046 22.078 9.983 22.339 10.0131C22.5999 10.0432 22.8524 10.1244 23.0819 10.252Z" fill="#36AF1A"/>
</svg>
