<svg width="16" height="16" viewBox="0 0 16 16" fill="none" xmlns="http://www.w3.org/2000/svg">
<g clip-path="url(#clip0_615_2717)">
<mask id="mask0_615_2717" style="mask-type:luminance" maskUnits="userSpaceOnUse" x="0" y="0" width="16" height="16">
<path d="M0 0H16V16H0V0Z" fill="white"/>
</mask>
<g mask="url(#mask0_615_2717)">
<path d="M2.79333 2.97999C2.31333 3.19332 2 3.67332 2 4.19999V7.33332C2 11.0333 4.56 14.4933 8 15.3333C11.44 14.4933 14 11.0333 14 7.33332V4.19999C14 3.67332 13.6867 3.19332 13.2067 2.97999L8.54 0.906656C8.19333 0.753323 7.8 0.753323 7.46 0.906656L2.79333 2.97999ZM8 4.66666C8.36667 4.66666 8.66667 4.96666 8.66667 5.33332C8.66667 5.69999 8.36667 5.99999 8 5.99999C7.63333 5.99999 7.33333 5.69999 7.33333 5.33332C7.33333 4.96666 7.63333 4.66666 8 4.66666ZM8 7.33332C8.36667 7.33332 8.66667 7.63332 8.66667 7.99999V10.6667C8.66667 11.0333 8.36667 11.3333 8 11.3333C7.63333 11.3333 7.33333 11.0333 7.33333 10.6667V7.99999C7.33333 7.63332 7.63333 7.33332 8 7.33332Z" fill="#071334"/>
</g>
</g>
<defs>
<clipPath id="clip0_615_2717">
<rect width="16" height="16" fill="white"/>
</clipPath>
</defs>
</svg>
