<svg width="20" height="20" viewBox="0 0 20 20" fill="none" xmlns="http://www.w3.org/2000/svg">
<path d="M13.3333 9.99999C15.6333 9.99999 17.5 8.13332 17.5 5.83332C17.5 3.53332 15.6333 1.66666 13.3333 1.66666C11.0333 1.66666 9.16667 3.53332 9.16667 5.83332C9.16667 8.13332 11.0333 9.99999 13.3333 9.99999ZM17.875 14.6667C17.55 14.3333 17.1417 14.1667 16.6667 14.1667H10.8333L9.10001 13.5583L9.37501 12.775L10.8333 13.3333H13.1667C13.4583 13.3333 13.6917 13.2167 13.8833 13.025C14.075 12.8333 14.1667 12.6 14.1667 12.3417C14.1667 11.8917 13.95 11.5833 13.5167 11.4083L7.45834 9.16666H5.83334V16.6667L11.6667 18.3333L18.3583 15.8333C18.3667 15.3917 18.2 15 17.875 14.6667ZM4.16667 9.16666H0.820007V18.3333H4.16667V9.16666Z" fill="#071334"/>
</svg>
