<svg width="40" height="40" viewBox="0 0 40 40" fill="none" xmlns="http://www.w3.org/2000/svg">
<rect width="40" height="40" rx="10" fill="white"/>
<path fill-rule="evenodd" clip-rule="evenodd" d="M11.7524 18.5815C11.7524 14.7005 14.9104 11.5435 18.7914 11.5435C22.6714 11.5435 25.8294 14.7005 25.8294 18.5815C25.8294 22.4625 22.6714 25.6205 18.7914 25.6205C14.9104 25.6205 11.7524 22.4625 11.7524 18.5815ZM30.2474 29.0405L25.6484 24.4535C27.0044 22.8725 27.8294 20.8235 27.8294 18.5815C27.8294 13.5985 23.7744 9.54346 18.7914 9.54346C13.8074 9.54346 9.75244 13.5985 9.75244 18.5815C9.75244 23.5655 13.8074 27.6205 18.7914 27.6205C20.8134 27.6205 22.6764 26.9445 24.1834 25.8175L28.8354 30.4565L30.2474 29.0405Z" fill="#071334"/>
</svg>
