<svg width="25" height="25" viewBox="0 0 25 25" fill="none" xmlns="http://www.w3.org/2000/svg">
<path fill-rule="evenodd" clip-rule="evenodd" d="M15.4081 17.385H9.59306C9.17906 17.385 8.84306 17.049 8.84306 16.635C8.84306 16.221 9.17906 15.885 9.59306 15.885H15.4081C15.8221 15.885 16.1581 16.221 16.1581 16.635C16.1581 17.049 15.8221 17.385 15.4081 17.385ZM19.7491 6.658C19.3861 6.338 18.9731 5.976 18.4811 5.521C18.2581 5.341 18.0141 5.135 17.7551 4.917C16.2951 3.686 14.2951 2 12.4721 2C10.6701 2 8.79906 3.592 7.29606 4.871C7.01806 5.107 6.75806 5.329 6.49306 5.544C6.02706 5.976 5.61406 6.339 5.25006 6.66C2.86306 8.761 2.41406 9.312 2.41406 14.213C2.41406 23 4.95506 23 12.5001 23C20.0441 23 22.5861 23 22.5861 14.213C22.5861 9.311 22.1371 8.76 19.7491 6.658Z" fill="#84CBFF"/>
</svg>
