<svg width="20" height="20" viewBox="0 0 20 20" fill="none" xmlns="http://www.w3.org/2000/svg">
<path d="M7.64646 2.66539C7.47147 2.67122 7.32126 2.81351 7.31822 3.00231V5.48937C7.31822 5.60793 7.22136 5.70627 7.10132 5.70627C6.9813 5.70627 6.88441 5.60796 6.88441 5.48937V2.43402C6.88441 2.24604 6.73114 2.09277 6.54316 2.09277C6.35518 2.09277 6.20191 2.24604 6.20191 2.43402V5.48934C6.20191 5.6079 6.10505 5.70625 5.98501 5.70625C5.86496 5.70625 5.7681 5.60793 5.7681 5.48934V1.34088C5.7681 1.1529 5.61628 0.999634 5.4283 0.999634C5.24032 0.999634 5.08705 1.1529 5.08705 1.34088V5.48934C5.08705 5.6079 4.99019 5.70625 4.87015 5.70625C4.75013 5.70625 4.65324 5.60793 4.65324 5.48934V2.12025C4.65324 1.93227 4.49997 1.78045 4.31199 1.78045C4.12401 1.78045 3.97074 1.93227 3.97074 2.12025V6.37858H4.24112C5.3227 6.37858 6.20183 7.25916 6.20183 8.34074C6.20183 8.46075 6.10496 8.55765 5.98492 8.55765C5.86636 8.55765 5.76802 8.46078 5.76802 8.34074C5.76802 7.49774 5.0841 6.81237 4.2411 6.81237H3.75381C3.6338 6.81237 3.5369 6.7155 3.5369 6.59546V4.78079C3.5369 4.5226 3.31789 4.32101 3.10457 4.32966C2.88185 4.33259 2.68958 4.51422 2.68958 4.75334V8.17736C2.68958 8.70368 2.90503 9.21699 3.28096 9.58572C3.61207 9.9096 3.84199 10.326 3.94321 10.7728H6.74563C6.84685 10.326 7.07674 9.9096 7.40788 9.58572C7.78529 9.21699 8.00072 8.70368 8.00072 8.17736V3.03266C8.00072 2.84104 7.844 2.65892 7.64646 2.66539Z" fill="#071334"/>
<path d="M13.1093 7.08022C13.0067 7.08324 12.9228 7.16997 12.9228 7.27398V9.10311C12.9228 9.22313 12.8259 9.32002 12.7058 9.32002C12.5858 9.32002 12.4889 9.22316 12.4889 9.10311C12.4889 8.30414 12.4889 7.68687 12.4889 6.85321C12.4889 6.74621 12.4022 6.65945 12.2952 6.65945C12.1882 6.65945 12.1 6.74621 12.1 6.85321V9.10311C12.1 9.22313 12.0031 9.32002 11.8831 9.32002C11.7645 9.32002 11.6662 9.22316 11.6662 9.10311V6.04779C11.6662 5.94079 11.5794 5.85403 11.4724 5.85403C11.3654 5.85403 11.2786 5.94079 11.2786 6.04779V9.10311C11.2786 9.22313 11.1818 9.32002 11.0617 9.32002C10.9417 9.32002 10.8448 9.22316 10.8448 9.10311V6.62186C10.8448 6.51486 10.7581 6.42811 10.6511 6.42811C10.5441 6.42811 10.4573 6.51486 10.4573 6.62186V9.70176H10.599C11.4276 9.70176 12.0999 10.3756 12.0999 11.2041C12.0999 11.3241 12.0031 11.421 11.883 11.421C11.7644 11.421 11.6661 11.3241 11.6661 11.2041C11.6661 10.6141 11.1875 10.1355 10.599 10.1355H10.2404C10.1204 10.1355 10.0235 10.0387 10.0235 9.91864V8.58257C10.0235 8.44215 9.90989 8.30638 9.76322 8.30638C9.62853 8.30931 9.51306 8.41618 9.51306 8.56233V11.0841C9.51306 11.4557 9.66491 11.8186 9.93238 12.0803C10.1695 12.3131 10.3387 12.6067 10.4211 12.9248H12.4021C12.4845 12.6067 12.6537 12.3131 12.8922 12.0803C13.1583 11.8186 13.3101 11.4557 13.3101 11.0841V7.29423C13.3103 7.18536 13.2276 7.08285 13.1093 7.08022Z" fill="#071334"/>
<path d="M9.82236 13.6482V14.7112C9.82236 14.8709 9.95182 15.0004 10.1116 15.0004H12.7122C12.8719 15.0004 13.0014 14.8709 13.0014 14.7112V13.6482C13.0014 13.4885 12.8719 13.359 12.7122 13.359H10.1116C9.95185 13.359 9.82236 13.4885 9.82236 13.6482Z" fill="#071334"/>
<path d="M13.263 2.16289C13.263 3.52893 11.4118 4.80393 11.4118 4.80393C11.4118 4.80393 9.56064 3.52893 9.56064 2.16289C9.56064 1.61014 10.0089 1.1618 10.5617 1.1618C10.9208 1.1618 11.2357 1.35091 11.4119 1.63452C11.588 1.35088 11.9029 1.1618 12.262 1.1618C12.8155 1.1618 13.263 1.61011 13.263 2.16289Z" fill="#071334"/>
<path d="M7.45168 11.7848V14.7109C7.45168 14.8706 7.32222 15.0001 7.16248 15.0001H3.40645C3.24674 15.0001 3.11725 14.8706 3.11725 14.7109V11.7848C3.11725 11.4654 3.37621 11.2064 3.69562 11.2064H6.87328C7.19273 11.2064 7.45168 11.4654 7.45168 11.7848Z" fill="#071334"/>
</svg>
